<svg height="490pt" viewBox="0 0 490.998 490" width="490pt" xmlns="http://www.w3.org/2000/svg"><path d="m304.214844 287.59375c-.578125.433594-1.136719.886719-1.730469 1.304688-.804687.566406-1.628906 1.117187-2.46875 1.65625-3.644531 2.324218-7.625 4.335937-11.855469 6.03125-.933594.375-1.75.910156-2.414062 1.5625-.664063.65625-1.179688 1.421874-1.503906 2.261718l-3.445313 8.847656c-.144531.375-.351563.714844-.582031 1.039063-.058594.078125-.117188.15625-.179688.234375-.5.617188-1.144531 1.125-1.890625 1.496094-.09375.046875-.1875.089844-.28125.132812-.386719.167969-.789062.316406-1.210937.410156-.316406.070313-.644532.117188-.976563.144532-.332031.023437-.667969.027344-1.011719 0-6.253906-.453125-11.054687-4.933594-11.054687-10.3125v-22.238282h-36.226563v22.238282c0 5.375-4.804687 9.859375-11.058593 10.3125-.339844.023437-.679688.023437-1.011719 0-.332031-.023438-.65625-.070313-.972656-.144532-.425782-.09375-.824219-.242187-1.210938-.410156-.097656-.042968-.191406-.085937-.28125-.132812-.746094-.371094-1.390625-.878906-1.890625-1.496094-.0625-.078125-.121093-.15625-.179687-.234375-.230469-.324219-.4375-.664063-.582032-1.039063l-3.449218-8.847656c-.324219-.839844-.839844-1.605468-1.503906-2.261718-.664063-.652344-1.476563-1.1875-2.414063-1.5625-4.226563-1.695313-8.207031-3.710938-11.851563-6.03125-.839843-.539063-1.664062-1.089844-2.46875-1.65625-.597656-.417969-1.152343-.871094-1.730468-1.304688 4.023437 17.972656 10.511718 64.714844-21.085938 96.058594h159.601563c-31.59375-31.34375-25.105469-78.085938-21.078125-96.058594zm0 0" fill="#f9cfcf"/><path d="m170.574219 170.496094c-.007813-.027344-.011719-.054688-.015625-.078125l-.015625-.058594zm0 0" fill="#f9a7a7"/><path d="m316.15625 54.324219-.515625-.152344-.507813-.171875c-11.613281-3.890625-23.105468-9.832031-33.230468-17.179688l-2.144532-1.558593c-3.050781-1.761719-13.328124-6.601563-34.253906-6.601563-20.925781 0-31.203125 4.839844-34.253906 6.601563l-2.144531 1.558593c-10.125 7.347657-21.617188 13.289063-33.230469 17.179688l-.507812.171875-.515626.152344c-6.945312 2.066406-13.597656 3.535156-18.828124 4.53125 8.21875 4.933593 13.59375 13.050781 13.59375 22.210937v82.207032c0 .558593.019531 1.113281.050781 1.621093l.082031.824219c.03125.347656.054688.695312.097656 1.054688l.148438.898437c.046875.308594.089844.613281.140625.898437l.203125.851563c.070312.324219.140625.652344.230468.992187l.1875.625c.105469.367188.210938.730469.308594 1.039063l.230469.625c.140625.386719.277344.773437.417969 1.121094l.242187.554687c.164063.378906.332031.761719.53125 1.1875l.234375.457032c.210938.414062.421875.828124.636719 1.210937l.234375.402344c.246094.425781.496094.847656.773438 1.285156l.21875.332031c.28125.429688.570312.855469.875 1.277344l.207031.28125c.355469.484375.71875.957031.988281 1.292969l.210938.253906c.402343.488281.816406.96875 1.125 1.308594l.210937.234375c.425781.464844.863281.925781 1.316406 1.375l.113281.109375c.488282.484375.992188.960937 1.511719 1.425781l.175781.160156c.484376.429688.980469.851563 1.496094 1.269532.570313.464843 1.160156.917968 1.761719 1.363281l3.101563 2.285156c4.269531 3.140625 9.699218 4.988281 15.328124 4.941406 13.445313-.109375 24.386719 9.199219 24.386719 20.695313v84.875c0 5.375-4.800781 9.855468-11.054687 10.3125-2.726563.195312-5.261719-1.230469-6.128906-3.460938l-3.445313-8.847656c-.652344-1.675781-2.050781-3.078125-3.917969-3.824219-.171875-.070312-.335937-.148437-.507812-.21875 2.582031 21.585938 3.445312 60.199219-17.222656 87.285157h120.777343c-20.667969-27.089844-19.800781-65.699219-17.21875-87.285157-.171875.070313-.335937.148438-.511719.21875-1.863281.746094-3.265624 2.148438-3.917968 3.824219l-3.445313 8.847656c-.867187 2.226563-3.398437 3.65625-6.125 3.460938-6.253906-.457032-11.058593-4.9375-11.058593-10.3125v-84.875c0-11.535156 11.09375-20.75 24.589843-20.695313 5.5625.019531 10.90625-1.839843 15.125-4.941406l3.101563-2.285156c.601562-.445313 1.191406-.898438 1.769531-1.367188.511719-.417969 1.011719-.839843 1.5-1.273437l.167969-.152344c.515625-.464844 1.019531-.941406 1.511718-1.425781l.113282-.113281c.453125-.449219.890625-.910157 1.3125-1.371094l.148437-.160156c.410157-.453126.804688-.914063 1.152344-1.335938l.183594-.222656c.363281-.449219.714843-.910156 1.097656-1.429688l.160156-.214844c.304688-.421874.597657-.855468.90625-1.328124l.195313-.289063c.269531-.421875.523437-.851563.761718-1.265625l.238282-.402344c.222656-.40625.4375-.816406.65625-1.257812l.222656-.429688c.183594-.394531.359375-.792968.542969-1.21875l.222656-.503906c.152344-.375.289063-.753906.417969-1.121094l.226562-.609375c.113282-.355469.214844-.714843.335938-1.121093l.191406-.628907c.078125-.308593.148438-.636719.238281-1.050781l.171875-.71875c.054688-.304688.097656-.609375.144532-.914062l.152343-.894532c.039063-.351562.0625-.714844.105469-1.164062l.070312-.703125c.03125-.542969.050782-1.089844.050782-1.644531v-82.207032c0-9.160156 5.375-17.277344 13.59375-22.210937-5.238282-.996094-11.894532-2.464844-18.839844-4.53125zm0 0" fill="#f9a7a7"/><path d="m418.285156 36.667969h-68.71875s-11.707031-1.449219-24.171875-5.15625c-6.648437-2.226563-15.757812-6.203125-25.289062-13.121094-.03125-.03125-.0625-.0625-.09375-.09375 0 0-.800781-.714844-2.476563-1.808594-5.722656-3.738281-21.761718-11.976562-52.035156-11.976562s-46.3125 8.234375-52.035156 11.972656c-1.675782 1.09375-2.476563 1.804687-2.476563 1.804687-.03125.035157-.0625.066407-.09375.097657-9.53125 6.917969-18.640625 10.894531-25.289062 13.121093-12.464844 3.707032-24.171875 5.15625-24.171875 5.15625h-68.714844c-37.953125 0-68.714844 23.761719-68.714844 53.074219 0 24.320313 21.1875 44.800781 50.074219 51.082031-2.511719-3.34375-3.957031-7.070312-3.957031-11.019531 0-4.226562 1.640625-8.203125 4.488281-11.71875-13.726563-5.25-23.136719-16.242187-22.847656-28.902343.390625-17.394532 19.503906-31.082032 42.023437-31.082032h11.820313c15.214843-.054687 16.65625 5.90625 16.65625 5.90625v-.078125c2.015625 6.027344 7.796875 11.179688 16.359375 13.25 2.460937.59375 5.054687.824219 7.632812.824219h11.21875c2.191406 0 3.964844 1.371094 3.964844 3.0625v82.203125c0 1.082031.039062 2.160156.109375 3.226563.023437.316406.066406.625.09375.9375.066406.753906.128906 1.507812.230469 2.253906.046875.351562.117187.703125.171875 1.054687.109375.699219.21875 1.402344.355469 2.09375.070312.34375.160156.683594.238281 1.023438.15625.699219.308593 1.394531.496093 2.082031.085938.316406.1875.625.28125.941406.207032.710938.414063 1.417969.652344 2.117188.097656.28125.207032.558594.308594.835937.261719.726563.527344 1.449219.824219 2.167969.101562.246094.210937.488281.320312.730469.320313.742187.648438 1.484375 1.003907 2.214843.101562.207032.210937.410157.316406.617188.378906.761719.773437 1.519531 1.195312 2.265625.09375.167969.199219.335937.296875.507813.449219.777343.910157 1.546874 1.398438 2.308593.085937.132813.175781.265625.261719.394531.519531.792969 1.054687 1.574219 1.613281 2.34375.070312.101563.148437.199219.21875.296876.585937.800781 1.195312 1.585937 1.824219 2.363281.058593.070312.121093.140625.175781.210937.65625.800782 1.335937 1.585938 2.035156 2.359375.042969.050781.085937.097657.128906.140625.726563.796875 1.472657 1.574219 2.242188 2.339844.03125.027344.054687.054688.082031.082031.792969.78125 1.605469 1.550781 2.445312 2.300781.011719.011719.023438.023438.035157.03125.851562.765626 1.730469 1.515626 2.628906 2.246094 0 0 .003906 0 .003906.003906.90625.734376 1.835938 1.457032 2.789063 2.15625v42.054688c0 6.351562 1.460937 12.441406 4.132812 18.078125 1.527344 3.222656 3.449219 6.296875 5.726563 9.1875 1.136719 1.445313 2.363281 2.847656 3.667969 4.195313.65625.675781 1.328124 1.335937 2.023437 1.984374 2.082031 1.949219 4.339844 3.777344 6.757813 5.476563.804687.566406 1.628906 1.117187 2.46875 1.652344 3.644531 2.324219 7.625 4.339843 11.855468 6.03125 1.863282.75 3.265625 2.152343 3.917969 3.824219l3.445313 8.847656c.867187 2.226562 3.398437 3.65625 6.128906 3.457031 6.25-.453125 11.054687-4.933594 11.054687-10.308594v-84.875c0-11.5-10.941406-20.804687-24.390625-20.695312-5.628906.046875-11.054687-1.800781-15.324218-4.941407l-3.105469-2.285156c-.601563-.445312-1.1875-.898437-1.761719-1.363281-.511719-.417969-1.011719-.839844-1.496094-1.269531l-.175781-.160156c-.515625-.464844-1.019531-.941407-1.511719-1.425782l-.109375-.109375c-.453125-.449219-.894531-.910156-1.316406-1.375l-.214844-.234375c-.304687-.339844-.71875-.820312-1.121093-1.308594l-.210938-.253906c-.269531-.335937-.636719-.8125-.992188-1.292968l-.207031-.28125c-.300781-.421876-.589843-.847657-.871093-1.277344l-.222657-.332032c-.277343-.4375-.527343-.859374-.773437-1.285156l-.234375-.402344c-.214844-.382812-.425781-.796874-.632813-1.210937l-.234375-.457031c-.203125-.425782-.367187-.804688-.53125-1.191406l-.246093-.550782c-.140626-.347656-.277344-.734375-.414063-1.121094l-.230469-.625c-.101562-.308593-.203125-.671874-.308594-1.039062l-.191406-.625c.007813.027344.011719.054688.019532.078125l-.035157-.132813.015625.054688c-.089844-.339844-.160156-.667969-.230468-.992188l-.203126-.851562c-.050781-.285156-.09375-.589844-.140624-.898438l-.148438-.898437c-.042969-.359375-.066406-.707031-.097656-1.054687l-.082032-.824219c-.03125-.507813-.050781-1.0625-.050781-1.621094v-82.199219c0-9.160156-5.375-17.277344-13.59375-22.210937 5.226563-.996094 11.882813-2.464844 18.828125-4.527344l.515625-.15625.507813-.167969c11.613281-3.894531 23.105468-9.835937 33.230468-17.183594l2.144532-1.554687c3.050781-1.765625 13.328125-6.601563 34.253906-6.601563s31.203125 4.835938 34.253906 6.601563l2.144532 1.554687c10.125 7.347657 21.617187 13.289063 33.230468 17.183594l.507813.167969.515625.15625c6.945312 2.0625 13.601562 3.535156 18.828125 4.527344-8.21875 4.933593-13.59375 13.050781-13.59375 22.210937v82.203125c0 .554688-.019531 1.101563-.050781 1.644531l-.070313.703126c-.039063.445312-.0625.8125-.109375 1.164062l-.148438.894531c-.046874.308594-.089843.613281-.144531.914063l-.171875.722656c-.089844.414062-.160156.738281-.238281 1.050781l-.191406.628907c-.121094.40625-.222657.765624-.335938 1.121093l-.226562.609375c-.132813.367188-.265625.746094-.417969 1.121094l-.222656.503906c-.183594.425782-.355469.824219-.542969 1.21875l-.222656.429688c-.222657.4375-.433594.851562-.65625 1.257812l-.238281.40625c-.242188.414063-.496094.839844-.761719 1.261719l-.195313.292969c-.308594.472656-.601562.902344-.90625 1.328125l-.160156.214843c-.382812.515626-.734375.976563-1.097656 1.425782l-.183594.222656c-.351562.425781-.742188.882812-1.152344 1.335938l-.148437.160156c-.421875.464844-.859375.921875-1.3125 1.371094l-.113281.113281c-.492188.484375-.996094.960937-1.511719 1.425781l-.167969.152344c-.488281.433594-.988281.855468-1.5 1.273437-.578125.46875-1.167969.925781-1.769531 1.367188l-3.101563 2.285156c-4.21875 3.105469-9.5625 4.960937-15.125 4.941406-13.496094-.054687-24.589844 9.160157-24.589844 20.695313v84.875c0 5.375 4.804688 9.855468 11.054688 10.3125 2.730469.195312 5.265625-1.230469 6.128906-3.460938l3.445313-8.847656c.652343-1.675781 2.054687-3.074219 3.917969-3.824219 4.230468-1.691406 8.210937-3.710937 11.855468-6.03125.839844-.535156 1.664063-1.085937 2.46875-1.652343 2.417969-1.699219 4.679688-3.527344 6.757813-5.476563.695312-.648437 1.371093-1.3125 2.023437-1.984375 1.304688-1.351562 2.53125-2.75 3.667969-4.195312 2.273437-2.890626 4.199219-5.964844 5.726563-9.1875 2.671874-5.636719 4.132812-11.726563 4.132812-18.078126v-42.054687c.949219-.699219 1.878906-1.421875 2.789062-2.15625 0-.003906.003907-.003906.003907-.003906.902343-.734375 1.777343-1.480469 2.628906-2.246094.011719-.007813.023437-.019531.035156-.03125.839844-.75 1.652344-1.519531 2.445313-2.300781.023437-.027344.050781-.054688.082031-.082032.769531-.765624 1.515625-1.542968 2.242187-2.339843.039063-.042969.085938-.09375.128907-.140625.703125-.773438 1.378906-1.558594 2.035156-2.359375.054687-.070313.117187-.140625.175781-.210938.628906-.777343 1.238282-1.5625 1.824219-2.363281.070313-.097656.144531-.195312.21875-.296875.558594-.769531 1.09375-1.550781 1.613281-2.339844.085938-.136719.175782-.265625.261719-.398437.488281-.761719.949219-1.53125 1.398437-2.308594.097657-.167969.203126-.335938.296876-.507812.421874-.746094.816406-1.503907 1.195312-2.265626.105469-.207031.214844-.410156.316406-.617187.355469-.730469.683594-1.472656 1.003906-2.214844.105469-.246093.21875-.484375.320313-.730469.296875-.714843.5625-1.441406.824219-2.167968.101562-.277344.214844-.554688.308594-.835938.234374-.699218.445312-1.40625.652343-2.117187.09375-.3125.195313-.625.28125-.941407.1875-.6875.339844-1.382812.496094-2.082031.078125-.339843.167969-.679687.238281-1.023437.136719-.691406.246094-1.394532.355469-2.09375.054687-.351563.125-.699219.171875-1.054688.101562-.746094.164062-1.5.230469-2.253906.027343-.3125.074219-.621094.09375-.9375.070312-1.066406.109375-2.144531.109375-3.226562v-82.207032c0-1.691406 1.773437-3.0625 3.964844-3.0625h11.21875c2.578124 0 5.167968-.230468 7.632812-.824218 8.5625-2.070313 14.34375-7.21875 16.359375-13.25v.078124s1.441406-5.957031 16.65625-5.90625h11.816406c22.523438 0 41.636719 13.691407 42.027344 31.082032.285156 12.636718-9.09375 23.613281-22.773437 28.875 2.863281 3.519531 4.507812 7.507812 4.507812 11.746094 0 3.941406-1.4375 7.660156-3.933594 10.996093 28.828125-6.308593 49.957032-26.769531 49.957032-51.054687.007812-29.316406-30.757813-53.078125-68.707032-53.078125zm0 0" fill="#f9cfcf"/><path d="m440.976562 129.804688c0-14.175782-18.089843-25.667969-40.410156-25.667969-22.320312 0-40.414062 11.492187-40.414062 25.667969 0 14.171874 18.09375 25.664062 40.414062 25.664062 22.320313 0 40.410156-11.492188 40.410156-25.664062zm0 0" fill="#f9a7a7"/><path d="m130.945312 129.804688c0-14.175782-18.09375-25.667969-40.414062-25.667969-22.316406 0-40.410156 11.492187-40.410156 25.667969 0 14.171874 18.09375 25.664062 40.410156 25.664062 22.320312 0 40.414062-11.492188 40.414062-25.664062zm0 0" fill="#f9a7a7"/><path d="m325.300781 387.640625h-159.601562c-1.621094 0-3.082031-.980469-3.695313-2.476563-.621094-1.5-.273437-3.222656.878906-4.363281 29.328126-29.089843 24.261719-72.378906 20.289063-91.023437l-3.96875-3.289063c-.0625-.054687-.121094-.105469-.179687-.160156-.742188-.695313-1.464844-1.40625-2.164063-2.128906-1.390625-1.4375-2.71875-2.953125-3.933594-4.5-2.472656-3.140625-4.554687-6.488281-6.195312-9.949219-3-6.324219-4.519531-12.980469-4.519531-19.792969v-40.0625c-.441407-.34375-.875-.691406-1.308594-1.042969-.019532-.015624-.039063-.03125-.058594-.050781-.933594-.757812-1.839844-1.535156-2.726562-2.328125-.925782-.828125-1.785157-1.640625-2.621094-2.46875-.90625-.898437-1.699219-1.726562-2.464844-2.566406-.003906-.003906-.136719-.148438-.140625-.152344-.746094-.820312-1.460937-1.65625-2.160156-2.503906l-.195313-.234375c-.664062-.820313-1.3125-1.65625-1.933594-2.507813l-.238281-.320312c-.597656-.824219-1.171875-1.660156-1.722656-2.503906l-.289063-.4375c-.511718-.796875-1.007812-1.621094-1.488281-2.453125l-.324219-.558594c-.445312-.789063-.867187-1.601563-1.28125-2.417969l-.335937-.660156c-.386719-.792969-.738281-1.589844-1.082031-2.390625l-.347656-.792969c-.3125-.761718-.605469-1.546875-.886719-2.332031l-.101563-.273437c-.078125-.207032-.152344-.414063-.226562-.625-.257813-.761719-.484375-1.527344-.707032-2.292969l-.089843-.292969c-.074219-.238281-.144531-.472656-.210938-.714844-.203125-.75-.375-1.503906-.542969-2.257812l-.078124-.328125c-.058594-.257813-.121094-.515625-.175782-.777344-.140625-.699219-.25-1.40625-.359375-2.113281l-.085937-.5c-.046875-.261719-.089844-.527344-.125-.792969-.105469-.792969-.175782-1.585937-.246094-2.382813l-.039062-.378906c-.023438-.226562-.046876-.457031-.0625-.6875-.078126-1.164062-.121094-2.328125-.121094-3.5v-81.261718h-11.183594c-3.117188 0-6.003906-.316407-8.574219-.9375-9.246093-2.234376-16.308593-7.941407-19.019531-15.320313-.066406-.144531-.128906-.292969-.183594-.449219-.570312-.949218-3.894531-3.265625-12.855468-3.199218h-11.835938c-20.628906 0-37.6875 12.1875-38.023438 27.171874-.234374 10.429688 7.722657 20.273438 20.277344 25.078126 1.195313.457031 2.101563 1.460937 2.433594 2.699218.332031 1.238282.050781 2.558594-.757812 3.554688-2.382813 2.941406-3.589844 6.039062-3.589844 9.199218 0 2.929688 1.0625 5.828126 3.15625 8.617188 1 1.335938 1.070312 3.15625.167968 4.5625-.90625 1.410156-2.585937 2.097656-4.21875 1.75-31.339843-6.8125-53.226562-29.421875-53.226562-54.988281 0-31.472657 32.621094-57.078125 72.714844-57.078125h68.460937c1.6875-.226563 12.261719-1.710938 23.289063-4.988282 5.664062-1.902343 14.503906-5.625 23.847656-12.359374.003906-.003907.007812-.003907.011719-.007813.167969-.152344 1.117187-.976563 2.953125-2.175781 5.8125-3.792969 22.734375-12.621094 54.21875-12.621094 31.488281 0 48.410156 8.828125 54.222656 12.621094 1.835938 1.199218 2.785156 2.023437 2.953125 2.175781.003906 0 .007813.003906.011719.007813 9.34375 6.734374 18.183594 10.457031 23.976562 12.398437 10.9375 3.25 21.476563 4.722656 23.164063 4.949219h68.457031c40.097656 0 72.714844 25.601562 72.714844 57.078125 0 25.515625-21.835938 48.117187-53.101563 54.957031-1.625.359375-3.3125-.335938-4.214843-1.742188-.90625-1.40625-.839844-3.222656.160156-4.558593 2.085937-2.785157 3.136718-5.675781 3.136718-8.597657 0-3.171874-1.214843-6.277343-3.613281-9.222656-.808593-.996094-1.089843-2.316406-.761719-3.554687.332032-1.238281 1.234376-2.246094 2.429688-2.703125 12.511719-4.8125 20.445312-14.644532 20.210938-25.050782-.335938-14.984374-17.394532-27.171874-38.027344-27.171874h-11.820313c-9.039062.003906-12.296875 2.25-12.871093 3.199218-.054688.160156-.117188.3125-.1875.457032-2.710938 7.375-9.773438 13.078124-19.015626 15.3125-2.570312.621093-5.457031.9375-8.574218.9375h-11.183594v81.265624c0 1.175782-.042969 2.339844-.117188 3.496094-.015624.234375-.042968.472656-.066406.710938l-.03125.296875c-.074218.867187-.144531 1.660156-.25 2.449219-.039062.269531-.082031.53125-.128906.792968l-.0625.351563c-.132812.859375-.242188 1.5625-.382812 2.261719-.054688.261718-.117188.519531-.175782.777343l-.082031.335938c-.164063.746093-.335937 1.496093-.535156 2.242187-.070313.25-.140625.488282-.214844.722656l-.09375.308594c-.21875.75-.445313 1.515625-.703125 2.273438-.074219.214844-.152344.417968-.230469.628906l-.101562.277344c-.28125.78125-.570313 1.566406-.890625 2.339844l-.339844.78125c-.34375.800781-.699219 1.597656-1.082031 2.382812l-.335938.660156c-.414062.824219-.835937 1.636719-1.289062 2.4375l-.21875.378906c-.578125 1-1.074219 1.824219-1.597657 2.636719l-.195312.296875c-.636719.96875-1.207031 1.804688-1.804688 2.628906l-.164062.21875c-.695312.949219-1.34375 1.789063-2.015625 2.613282-.011719.015625-.125.15625-.136719.167968-.75.910157-1.464844 1.746094-2.210937 2.566407-.003907.007812-.140625.152343-.148438.160156-.761719.832031-1.550781 1.660156-2.367187 2.472656-.929688.914063-1.789063 1.726563-2.671875 2.519531-.925781.828126-1.832031 1.605469-2.765625 2.367188-.011719.007812-.023438.019531-.035156.027344-.441407.359375-.886719.714844-1.332032 1.0625v40.0625c0 6.8125-1.519531 13.46875-4.519531 19.792968-1.640625 3.460938-3.722656 6.804688-6.195313 9.945313-1.214843 1.546875-2.539062 3.0625-3.9375 4.507813-.699218.71875-1.417968 1.429687-2.164062 2.125-.058594.054687-.117188.105468-.179688.160156l-3.96875 3.289062c-3.972656 18.644532-9.035156 61.933594 20.292969 91.023438 1.148438 1.140625 1.496094 2.863281.878907 4.363281-.613282 1.488281-2.070313 2.46875-3.691407 2.46875zm-150.617187-8h141.632812c-25.851562-32.160156-20-75.097656-16.007812-92.933594.195312-.863281.667968-1.640625 1.351562-2.207031l4.933594-4.089844c.613281-.578125 1.210938-1.167968 1.792969-1.765625 1.210937-1.25 2.355469-2.558593 3.402343-3.890625 2.097657-2.667968 3.867188-5.503906 5.25-8.425781 2.488282-5.242187 3.746094-10.75 3.746094-16.363281v-42.054688c0-1.269531.605469-2.464844 1.625-3.21875.886719-.652344 1.75-1.320312 2.59375-2.003906.019532-.015625.035156-.03125.054688-.042969.847656-.691406 1.675781-1.398437 2.480468-2.121093.824219-.738282 1.589844-1.460938 2.335938-2.199219.796875-.792969 1.5-1.527344 2.183594-2.273438.777344-.855469 1.410156-1.59375 2.027344-2.339843l3.265624 2.324218-3.101562-2.523437c.589844-.726563 1.15625-1.460938 1.707031-2.207031.007813-.007813.113281-.152344.121094-.164063.605469-.828125 1.105469-1.554687 1.585937-2.292969.007813-.015625.125-.191406.132813-.203125.003906-.003906.109375-.167969.113281-.171875.453125-.707031.882813-1.417968 1.296875-2.140625l.273438-.464843c.394531-.699219.757812-1.398438 1.113281-2.101563l.296875-.582031c.324219-.667969.628906-1.351563.921875-2.039063l.292969-.667969c.277343-.667968.519531-1.332031.761719-2.003906l.285156-.773437c.21875-.636719.410156-1.289063.601562-1.941407l.261719-.871093c.167969-.625.308594-1.265625.449219-1.90625l.222656-.945313c.117188-.582031.207031-1.167968.296875-1.761718l.1875-1.128907c.089844-.660156.144531-1.332031.203125-2.003906l.089844-.910156c.066406-.988281.101562-1.972657.101562-2.96875v-82.207031c0-3.960938 3.5-7.0625 7.964844-7.0625h11.21875c2.484375 0 4.738281-.242188 6.695312-.714844 6.777344-1.636719 11.828126-5.609375 13.503907-10.625.066406-.207032.152343-.402344.246093-.585938 1.113282-2.535156 5.238282-7.949218 20.214844-7.976562h11.808594c24.941406 0 45.589844 15.695312 46.023438 34.992187.28125 12.453125-7.761719 24.097657-20.835938 30.699219 1.695312 3.199219 2.570312 6.59375 2.570312 10.011719 0 1.628906-.191406 3.238281-.574218 4.816406 23.097656-7.773437 38.597656-25.382813 38.597656-44.878906 0-27.0625-29.03125-49.078125-64.714844-49.078125h-68.71875c-.164062 0-.328125-.011719-.492187-.03125-.488281-.058594-12.183594-1.53125-24.820313-5.289063-6.5-2.175781-16.25-6.28125-26.496094-13.71875-.167968-.121093-.328124-.257812-.476562-.402343-.195312-.164063-.839844-.675782-1.933594-1.390626-5.214844-3.402343-20.507812-11.320312-49.847656-11.320312s-44.632812 7.914062-49.847656 11.320312c-1.070313.699219-1.707032 1.203126-1.929688 1.386719-.167968.179688-.265625.253907-.476562.40625-10.25 7.4375-19.996094 11.542969-26.367188 13.675781-12.769531 3.800782-24.464844 5.273438-24.953125 5.332032-.164062.023437-.328125.03125-.492187.03125h-68.71875c-35.683594 0-64.714844 22.015625-64.714844 49.078125 0 19.539062 15.542969 37.167969 38.703125 44.917969-.386719-1.59375-.582031-3.214844-.582031-4.855469 0-3.402344.871094-6.78125 2.546875-9.96875-13.121094-6.59375-21.191407-18.257813-20.910157-30.742188.433594-19.292969 21.082032-34.992187 46.023438-34.992187h12.03125c14.800781 0 18.894531 5.46875 19.996094 7.988281.09375.179687.175781.371094.246094.574219 1.675781 5.015625 6.722656 8.992187 13.5 10.628906 1.960937.472656 4.210937.710938 6.695312.710938h11.21875c4.46875 0 7.964844 3.101562 7.964844 7.0625v82.203124c0 .996094.035156 1.984376.101562 2.964844l.085938.867188c.0625.722656.117187 1.394531.207031 2.058594l.160156.960937c.117188.753906.207031 1.34375.324219 1.925781l.21875.9375c.148438.648438.285156 1.289063.457031 1.917969l.257813.851563c.195312.664062.382812 1.316406.605468 1.957031l.28125.765625c.242188.675781.488282 1.34375.757813 2l.296875.679687c.296875.6875.601562 1.371094.929688 2.046875l.292968.578125c.351563.695313.714844 1.398438 1.105469 2.089844l.277344.472656c.414062.71875.84375 1.433594 1.296875 2.140625l.113281.171875c.007813.011719.125.1875.132813.199219.480468.738281.980468 1.46875 1.5 2.183594.007812.011718.199218.265625.207031.277344.546875.746093 1.113281 1.480468 1.703125 2.207031l-2.925782 2.734375 3.089844-2.539063c.617188.75 1.25 1.488281 1.910156 2.214844.800782.875 1.5 1.605469 2.226563 2.328125.820313.8125 1.585937 1.535156 2.378906 2.246094.835938.75 1.664063 1.457031 2.511719 2.148437.019531.011719.035156.027344.054688.042969.832031.671875 1.703124 1.34375 2.59375 2 1.019531.753906 1.625 1.953125 1.625 3.222656v42.050782c0 5.617187 1.257812 11.125 3.746093 16.367187 1.382813 2.917969 3.152344 5.753906 5.253907 8.425781 1.046874 1.332032 2.191406 2.636719 3.398437 3.886719.585937.601563 1.183594 1.191406 1.792969 1.769531l4.9375 4.089844c.679687.566406 1.152344 1.339844 1.347656 2.207031 3.996094 17.835938 9.847656 60.773438-16.003906 92.933594zm134.558594-96.230469h.019531zm-210.867188-218.453125v.003907s0 0 0-.003907zm294.25 0v.003907s0 0 0-.003907zm-294.25-.011719v.007813c0-.003906 0-.007813 0-.007813zm294.25 0v.007813c0-.003906 0-.007813 0-.007813zm-294.253906-.011718v.007812c0-.003906 0-.007812 0-.007812zm294.257812 0v.007812c0-.003906 0-.007812 0-.007812zm0 0" fill="#3762cc"/><path d="m212.855469 336.027344c.089843.046875.183593.089844.28125.132812-.097657-.042968-.191407-.085937-.28125-.132812zm0 0" fill="#f9cfcf"/><path d="m277.863281 336.160156c.09375-.042968.191407-.085937.28125-.132812-.089843.046875-.183593.089844-.28125.132812zm0 0" fill="#f9cfcf"/><path d="m400.566406 159.46875c-24.90625 0-44.414062-13.03125-44.414062-29.664062 0-16.636719 19.507812-29.667969 44.414062-29.667969s44.410156 13.03125 44.410156 29.667969c0 16.632812-19.507812 29.664062-44.410156 29.664062zm0-51.328125c-19.738281 0-36.414062 9.917969-36.414062 21.664063 0 11.746093 16.671875 21.667968 36.414062 21.667968 19.738282 0 36.410156-9.921875 36.410156-21.667968 0-11.742188-16.671874-21.664063-36.410156-21.664063zm0 0" fill="#3762cc"/><path d="m90.53125 159.46875c-24.902344 0-44.410156-13.03125-44.410156-29.664062 0-16.636719 19.507812-29.667969 44.410156-29.667969 24.90625 0 44.414062 13.03125 44.414062 29.667969 0 16.632812-19.507812 29.664062-44.414062 29.664062zm0-51.328125c-19.738281 0-36.410156 9.917969-36.410156 21.664063 0 11.746093 16.671875 21.667968 36.410156 21.667968s36.414062-9.921875 36.414062-21.667968c0-11.742188-16.675781-21.664063-36.414062-21.664063zm0 0" fill="#3762cc"/><path d="m400.566406 159.46875c-24.90625 0-44.414062-13.03125-44.414062-29.664062 0-16.636719 19.507812-29.667969 44.414062-29.667969s44.410156 13.03125 44.410156 29.667969c0 16.632812-19.507812 29.664062-44.410156 29.664062zm0-51.328125c-19.738281 0-36.414062 9.917969-36.414062 21.664063 0 11.746093 16.671875 21.667968 36.414062 21.667968 19.738282 0 36.410156-9.921875 36.410156-21.667968 0-11.742188-16.671874-21.664063-36.410156-21.664063zm0 0" fill="#3762cc"/><path d="m400.566406 159.46875c-24.90625 0-44.414062-13.03125-44.414062-29.664062 0-16.636719 19.507812-29.667969 44.414062-29.667969s44.410156 13.03125 44.410156 29.667969c0 16.632812-19.507812 29.664062-44.410156 29.664062zm0-51.328125c-19.738281 0-36.414062 9.917969-36.414062 21.664063 0 11.746093 16.671875 21.667968 36.414062 21.667968 19.738282 0 36.410156-9.921875 36.410156-21.667968 0-11.742188-16.671874-21.664063-36.410156-21.664063zm0 0" fill="#3762cc"/><path d="m263.613281 233.859375-7.597656 10.394531c-2.5 3.425782-3.851563 7.558594-3.851563 11.800782v29.136718c0 4.417969 3.582032 8 8 8h3.449219zm0 0" fill="#a4c9ff"/><path d="m230.421875 213.527344h-1.476563c-.859374 0-1.558593.699218-1.558593 1.558594v63.550781c0 .859375.699219 1.554687 1.558593 1.554687 5.277344 0 9.554688-4.277344 9.554688-9.554687v-37.722657c0-3.328124-.769531-6.605468-2.246094-9.585937l-4.4375-8.9375c-.261718-.527344-.800781-.863281-1.394531-.863281zm0 0" fill="#a4c9ff"/><path d="m453.5 294.527344h-116.773438l-63.671874-24.390625c-3.234376-1.238281-6.40625 1.933593-5.167969 5.164062l25.613281 66.859375v112.367188c0 17.671875 14.324219 32 32 32h128c17.675781 0 32-14.328125 32-32v-128c0-17.675782-14.324219-32-32-32zm0 0" fill="#a4c9ff"/><path d="m326.164062 468.859375c-6.617187 0-12-5.382813-12-12v-128c0-6.617187 5.382813-12 12-12h128c6.621094 0 12 5.382813 12 12v128c0 6.617187-5.378906 12-12 12zm0 0" fill="#e0ebfc"/><path d="m453.5 490.527344h-128c-19.851562 0-36-16.148438-36-36v-111.625l-25.347656-66.171875c-1.144532-2.988281-.453125-6.253907 1.8125-8.515625 2.265625-2.265625 5.527344-2.960938 8.519531-1.816406l62.984375 24.128906h116.03125c19.851562 0 36 16.148437 36 36v128c0 19.851562-16.148438 36-36 36zm-181.878906-216.660156 25.613281 66.863281c.175781.457031.265625.941406.265625 1.429687v112.367188c0 15.441406 12.558594 28 28 28h128c15.441406 0 28-12.558594 28-28v-128c0-15.441406-12.558594-28-28-28h-116.773438c-.492187 0-.972656-.089844-1.429687-.265625zm0 0" fill="#3762cc"/><path d="m444.886719 380.859375c0 30.21875-24.5 54.71875-54.722657 54.71875-30.21875 0-54.71875-24.5-54.71875-54.71875 0-30.222656 24.5-54.71875 54.71875-54.71875 30.222657 0 54.722657 24.496094 54.722657 54.71875zm0 0" fill="#f9cfcf"/><path d="m390.164062 396.058594c-8.378906 0-15.199218-6.816406-15.199218-15.199219s6.820312-15.199219 15.199218-15.199219c8.382813 0 15.203126 6.816406 15.203126 15.199219s-6.820313 15.199219-15.203126 15.199219zm0 0" fill="#f9a7a7"/><path d="m390.164062 439.578125c-32.375 0-58.71875-26.339844-58.71875-58.71875s26.34375-58.71875 58.71875-58.71875c32.378907 0 58.722657 26.339844 58.722657 58.71875s-26.34375 58.71875-58.722657 58.71875zm0-109.4375c-27.964843 0-50.71875 22.75-50.71875 50.71875s22.753907 50.71875 50.71875 50.71875c27.96875 0 50.722657-22.75 50.722657-50.71875s-22.753907-50.71875-50.722657-50.71875zm0 0" fill="#3762cc"/><path d="m390.164062 400.058594c-10.585937 0-19.199218-8.613282-19.199218-19.199219 0-10.589844 8.613281-19.199219 19.199218-19.199219 10.589844 0 19.203126 8.613282 19.203126 19.199219s-8.613282 19.199219-19.203126 19.199219zm0-30.398438c-6.175781 0-11.199218 5.023438-11.199218 11.199219 0 6.171875 5.023437 11.199219 11.199218 11.199219 6.179688 0 11.203126-5.023438 11.203126-11.199219s-5.023438-11.199219-11.203126-11.199219zm0 0" fill="#3762cc"/><g fill="#e0ebfc"><path d="m395.425781 347.519531c0 5.667969-4.59375 10.261719-10.261719 10.261719-5.667968 0-10.261718-4.59375-10.261718-10.261719 0-5.664062 4.59375-10.257812 10.261718-10.257812 5.667969 0 10.261719 4.59375 10.261719 10.257812zm0 0"/><path d="m433.609375 367.179688c0 5.664062-4.59375 10.257812-10.257813 10.257812-5.667968 0-10.261718-4.59375-10.261718-10.257812 0-5.667969 4.59375-10.261719 10.261718-10.261719 5.664063 0 10.257813 4.59375 10.257813 10.261719zm0 0"/><path d="m370.765625 393.238281c0 5.664063-4.59375 10.257813-10.257813 10.257813-5.667968 0-10.261718-4.59375-10.261718-10.257813 0-5.667969 4.59375-10.261719 10.261718-10.261719 5.664063 0 10.257813 4.59375 10.257813 10.261719zm0 0"/><path d="m430.191406 398.550781c0 4.722657-3.828125 8.550781-8.550781 8.550781s-8.550781-3.828124-8.550781-8.550781c0-4.722656 3.828125-8.550781 8.550781-8.550781s8.550781 3.828125 8.550781 8.550781zm0 0"/><path d="m365.785156 364.320312c0 3.777344-3.0625 6.839844-6.839844 6.839844-3.777343 0-6.839843-3.0625-6.839843-6.839844 0-3.777343 3.0625-6.839843 6.839843-6.839843 3.777344 0 6.839844 3.0625 6.839844 6.839843zm0 0"/></g><path d="m373.578125 433.214844c-2.105469 3.425781-3.351563 7.539062-3.40625 11.972656-.152344 11.683594 8.308594 21.671875 18.921875 22.28125 11.53125.664062 21.074219-9.425781 21.074219-21.964844 0-4.554687-1.257813-8.78125-3.410157-12.289062l-.003906-.011719-14.917968-24.71875c-.792969-1.308594-2.542969-1.308594-3.332032 0l-14.917968 24.71875v.003906zm0 0" fill="#f9a7a7"/><path d="m390.167969 471.503906c-.433594 0-.871094-.011718-1.304688-.039062-12.691406-.730469-22.871093-12.542969-22.691406-26.328125.0625-5.007813 1.445313-9.855469 4-14.015625.023437-.042969.050781-.085938.078125-.125l.003906-.007813 14.824219-24.570312c1.101563-1.824219 3.003906-2.914063 5.089844-2.914063 2.085937 0 3.988281 1.089844 5.089843 2.914063l14.917969 24.722656c2.609375 4.25 3.992188 9.222656 3.992188 14.363281 0 7.519532-3 14.667969-8.234375 19.609375-4.394532 4.148438-9.949219 6.390625-15.765625 6.390625zm-.003907-58.035156-13.15625 21.800781c-.003906.007813-.015624.027344-.023437.035157-1.796875 2.929687-2.769531 6.367187-2.816406 9.933593-.125 9.570313 6.675781 17.75 15.152343 18.242188 4.066407.234375 8.015626-1.253907 11.121094-4.183594 3.636719-3.4375 5.722656-8.464844 5.722656-13.792969 0-3.667968-.972656-7.191406-2.816406-10.199218zm0 0" fill="#3762cc"/></svg>